<svg xmlns="http://www.w3.org/2000/svg" version="1.0" preserveAspectRatio="xMidYMid meet" viewBox="522 224 744.52 665.7">

<g transform="translate(0.000000,1250.000000) scale(0.100000,-0.100000)" fill="#000000" stroke="#000000">
<path class="path" stroke="#000000" d="M12395 10204 c-126 -87 -464 -254 -680 -334 -194 -72 -348 -106 -543 -119 -134 -9 -154 -18 -154 -65 0 -48 16 -56 113 -56 286 0 613 100 1069 326 80 39 147 67 148 62 10 -24 -162 -278 -462 -687 -269 -365 -1071 -1429 -1232 -1633 -456 -577 -806 -965 -1178 -1307 -494 -452 -999 -793 -1346 -908 -74 -24 -101 -28 -205 -28 -111 0 -124 2 -175 27 -66 33 -148 111 -184 178 l-26 48 64 79 c176 218 512 696 715 1017 387 612 665 1143 776 1481 64 197 79 281 80 450 l0 160 -34 63 c-39 73 -74 105 -149 140 -46 21 -65 23 -135 20 -94 -4 -175 -36 -283 -113 -187 -134 -468 -461 -666 -775 -227 -361 -380 -709 -488 -1110 -80 -299 -105 -509 -97 -819 6 -218 19 -332 58 -490 l21 -83 -23 -32 c-12 -17 -81 -101 -153 -186 -522 -617 -1182 -1229 -1804 -1672 -194 -138 -202 -145 -202 -180 0 -34 38 -63 71 -53 13 4 95 60 183 123 684 494 1267 1032 1815 1677 89 105 165 191 169 193 5 1 18 -15 30 -37 28 -49 125 -140 188 -175 79 -44 155 -59 274 -53 58 3 139 15 181 26 269 73 737 359 1154 706 352 293 614 555 1026 1025 192 220 535 657 999 1273 887 1179 1063 1424 1146 1602 l33 70 1 -240 c3 -454 16 -878 30 -915 32 -88 106 -114 140 -49 9 16 7 28 -11 57 -22 36 -23 49 -31 367 -21 880 -22 908 -41 946 -18 36 -51 59 -85 59 -10 0 -53 -25 -97 -56z m-3410 -1238 c59 -45 79 -102 79 -221 -2 -259 -149 -672 -404 -1130 -316 -568 -647 -1084 -1008 -1568 l-157 -210 -12 59 c-43 211 -58 547 -33 751 94 764 475 1548 1029 2116 98 101 179 162 272 207 55 27 73 31 130 28 55 -3 73 -9 104 -32z"/>
</g>
</svg>