<svg xmlns="http://www.w3.org/2000/svg" version="1.0" preserveAspectRatio="xMidYMid meet" viewBox="341.39 325.08 842.5 307.93">

<g transform="translate(0.000000,1250.000000) scale(0.100000,-0.100000)" fill="#000000" stroke="none">
<path d="M5468 9239 c-66 -15 -151 -66 -205 -121 -89 -92 -1772 -2268 -1804 -2333 -59 -120 -60 -243 -4 -371 27 -62 111 -155 171 -190 98 -58 -126 -54 3134 -54 1647 0 3012 4 3032 9 63 15 128 52 184 105 84 80 1788 2278 1826 2355 25 52 32 81 36 151 12 215 -107 382 -317 446 -39 12 -503 14 -3031 13 -1688 -1 -3001 -5 -3022 -10z m3002 -263 c0 -2 -318 -399 -706 -883 -389 -483 -847 -1052 -1018 -1265 l-311 -388 -1327 3 c-1321 2 -1327 2 -1354 23 -65 48 -87 154 -43 215 13 19 321 417 684 884 363 468 752 968 864 1113 198 256 217 276 270 293 26 7 2941 13 2941 5z m3026 -22 c53 -39 69 -71 69 -134 0 -46 -5 -65 -24 -92 -14 -18 -415 -535 -891 -1148 -559 -720 -876 -1120 -894 -1128 -21 -9 -349 -12 -1496 -12 -809 0 -1470 3 -1470 6 0 6 1979 2465 2018 2507 l26 27 1317 -2 c1313 -3 1318 -3 1345 -24z"/>
<path d="M5934 8285 c-91 -31 -134 -56 -213 -124 -35 -31 -66 -51 -68 -46 -24 72 -65 104 -115 92 -40 -10 -50 -47 -42 -157 l7 -97 -32 -46 c-39 -57 -41 -98 -5 -126 14 -11 30 -21 36 -23 6 -2 11 -54 13 -133 2 -72 8 -157 14 -190 5 -33 14 -125 21 -205 11 -142 11 -146 41 -172 38 -36 82 -37 105 -3 17 26 17 77 -2 288 l-6 67 158 0 c207 0 459 -15 661 -40 196 -24 251 -25 281 -4 32 22 30 78 -4 100 -29 19 -64 23 -569 54 -187 12 -374 24 -415 28 l-74 7 184 140 c273 206 321 261 364 404 25 85 21 118 -17 156 -18 18 -51 38 -72 44 -68 19 -173 13 -251 -14z m194 -129 c6 -27 -24 -98 -70 -166 -35 -53 -61 -74 -210 -175 -94 -63 -175 -112 -180 -109 -4 3 -8 51 -8 107 l1 102 78 69 c100 87 213 163 271 181 61 19 114 15 118 -9z"/>
<path d="M9360 8199 c-164 -40 -203 -45 -231 -25 -37 25 -65 20 -94 -19 -15 -19 -37 -37 -48 -41 -158 -46 -284 -91 -299 -106 -27 -27 -23 -72 9 -98 36 -28 73 -24 218 23 62 20 114 31 119 26 9 -8 28 -174 71 -639 24 -259 25 -266 50 -287 39 -34 81 -30 105 10 25 40 25 80 1 294 -17 148 -34 312 -60 576 -4 42 -5 81 -2 85 4 5 89 29 190 55 102 26 193 55 203 64 27 24 23 68 -8 92 -36 28 -82 26 -224 -10z"/>
</g>
</svg>